<svg xmlns="http://www.w3.org/2000/svg" width="1200" height="900" viewBox="0 0 1200 900" role="img" aria-label="Golf illustratie">
  <defs>
    <linearGradient id="g" x1="0" x2="1" y1="0" y2="1">
      <stop offset="0" stop-color="#f7f4ec"/>
      <stop offset="1" stop-color="#e7f1e8"/>
    </linearGradient>
  </defs>

  <rect width="1200" height="900" fill="url(#g)"/>
  <path d="M0 720 C 220 660, 420 760, 620 720 C 820 680, 980 740, 1200 700 L1200 900 L0 900 Z" fill="#d8eadc"/>
  <path d="M0 760 C 240 700, 430 820, 650 770 C 860 725, 980 800, 1200 760 L1200 900 L0 900 Z" fill="#bfe0c6"/>

  <rect x="820" y="250" width="8" height="360" rx="4" fill="#0f2a1d" opacity="0.9"/>
  <path d="M828 260 L948 300 L828 340 Z" fill="#0f2a1d" opacity="0.9"/>

  <circle cx="910" cy="640" r="18" fill="#ffffff" stroke="#0f2a1d" stroke-width="4"/>
  <circle cx="903" cy="634" r="3" fill="#0f2a1d" opacity="0.5"/>
  <circle cx="918" cy="648" r="3" fill="#0f2a1d" opacity="0.5"/>
  <circle cx="920" cy="634" r="3" fill="#0f2a1d" opacity="0.5"/>

  <text x="80" y="170" font-family="ui-sans-serif, system-ui, -apple-system, Segoe UI, Roboto, Arial" font-size="56" fill="#0f2a1d" font-weight="700">
    Geen Instagram-golf.
  </text>
  <text x="80" y="235" font-family="ui-sans-serif, system-ui, -apple-system, Segoe UI, Roboto, Arial" font-size="42" fill="#1f3a2d" font-weight="500">
    Wel verhalen die je herkent.
  </text>

  <text x="80" y="310" font-family="ui-sans-serif, system-ui, -apple-system, Segoe UI, Roboto, Arial" font-size="22" fill="#1f3a2d" opacity="0.8">
    (Vervang dit later gerust door een echte foto.)
  </text>

  <g fill="#0f2a1d" opacity="0.08">
    <circle cx="150" cy="420" r="6"/>
    <circle cx="200" cy="460" r="4"/>
    <circle cx="260" cy="430" r="5"/>
    <circle cx="320" cy="470" r="3"/>
    <circle cx="380" cy="440" r="5"/>
    <circle cx="440" cy="485" r="4"/>
  </g>
</svg>
